# xmcd
#
# Track frame offsets:
#	150
#	13735
#	31063
#	45732
#	62300
#	78747
#	94431
#	107528
#	125985
#	144412
#	166025
#	183802
#	205701
#	230436
#
# Disc length: 3251 seconds
# Revision: 0
# Processed by: cddbd v1.5.2PL0 Copyright (c) Steve Scherf et al.
# Submitted via: dBpowerAMP V12.0
#
DISCID=b10cb10e
DTITLE=Reba McEntire - Keep On Loving You
DYEAR=2009
DGENRE=Country
TTITLE0=Strange
TTITLE1=Just When I Thought I'd Stopped Loving You
TTITLE2=I Keep On Lovin' You
TTITLE3=I Want A Cowboy
TTITLE4=Consider Me Gone
TTITLE5=But Why
TTITLE6=Pink Guitar
TTITLE7=She's Turning 50 Today
TTITLE8=Eight Crazy Hours (In The Story Of Love)
TTITLE9=Nothing To Lose
TTITLE10=Over You
TTITLE11=Maggie Creek Road
TTITLE12=I'll Have What She's Having
TTITLE13=Strange
EXTD=
EXTT0=
EXTT1=
EXTT2=
EXTT3=
EXTT4=
EXTT5=
EXTT6=
EXTT7=
EXTT8=
EXTT9=
EXTT10=
EXTT11=
EXTT12=
EXTT13=
PLAYORDER=
